{"title":"Cowboys And Aliens 2011 TS XViD DTRG","uid":6575898,"size":1778090445,"categoryP":"video","categoryS":"movies","magnet":"?xt=urn:btih:7c2a869c4742c0b4ed66a705def073b793d3ff9e&amp;dn=Cowboys+And+Aliens+2011+TS+XViD+DTRG&amp;tr=udp%3A%2F%2Ftracker.openbittorrent.com%3A80&amp;tr=udp%3A%2F%2Fopen.demonii.com%3A1337&amp;tr=udp%3A%2F%2Ftracker.coppersurfer.tk%3A6969&amp;tr=udp%3A%2F%2Fexodus.desync.com%3A6969","seeders":0,"leechers":1,"uploader":"SAFCukO09","files":3,"time":1312195684,"description":"Format : AVI\nFormat/Info : Audio Video Interleave\nFile size : 1.66 GiB\nDuration : 1h 53mn\nOverall bit rate : 2 082 Kbps\nWriting library : VirtualDub build 32842/release\n\nVideo\nID : 0\nFormat : MPEG-4 Visual\nFormat profile : Advanced Simple@L5\nFormat settings, BVOP : 2\nFormat settings, QPel : No\nFormat settings, GMC : No warppoints\nFormat settings, Matrix : Default (H.263)\nMuxing mode : Packed bitstream\nCodec ID : XVID\nCodec ID/Hint : XviD\nDuration : 1h 53mn\nBit rate : 1 942 Kbps\nWidth : 720 pixels\nHeight : 304 pixels\nDisplay aspect ratio : 2.35:1\nFrame rate : 29.970 fps\nColor space : YUV\nChroma subsampling : 4:2:0\nBit depth : 8 bits\nScan type : Progressive\nCompression mode : Lossy\nBits/(Pixel*Frame) : 0.296\nStream size : 1.54 GiB (93%)\nWriting library : XviD 64\n\nAudio\nID : 1\nFormat : MPEG Audio\nFormat version : Version 1\nFormat profile : Layer 3\nCodec ID : 55\nCodec ID/Hint : MP3\nDuration : 1h 53mn\nBit rate mode : Constant\nBit rate : 128 Kbps\nChannel(s) : 2 channels\nSampling rate : 44.1 KHz\nCompression mode : Lossy\nStream size : 104 MiB (6%)\nAlignment : Split accross interleaves\nInterleave, duration : 33 ms (1.00 video frame)\nInterleave, preload duration : 500 ms\n\n\n\n\n\n &lt;a href=&quot;\nhttp://www.imdb.com/title/tt0409847/&quot; rel=&quot;nofollow&quot; target=&quot;_NEW&quot;&gt;\nhttp://www.imdb.com/title/tt0409847/&lt;/a&gt;\n\n\n\n\n89524873606771859129.png\n\n\n\n\nA spaceship arrives in Arizona, 1873, to take over the Earth, starting with the Wild West region. A posse of cowboys are all that stand in their way.\n\nDirector: Jon Favreau\nWriters: Roberto Orci (screenplay), Alex Kurtzman (screenplay), and 7 more","torrent":{"xt":"urn:btih:7c2a869c4742c0b4ed66a705def073b793d3ff9e","amp;dn":"Cowboys+And+Aliens+2011+TS+XViD+DTRG","amp;tr":["udp%3A%2F%2Ftracker.openbittorrent.com%3A80","udp%3A%2F%2Fopen.demonii.com%3A1337","udp%3A%2F%2Ftracker.coppersurfer.tk%3A6969","udp%3A%2F%2Fexodus.desync.com%3A6969"],"infoHash":"7c2a869c4742c0b4ed66a705def073b793d3ff9e","infoHashBuffer":{"type":"Buffer","data":[124,42,134,156,71,66,192,180,237,102,167,5,222,240,115,183,147,211,255,158]},"announce":[],"urlList":[]}}